<svg xmlns="http://www.w3.org/2000/svg" width="519" height="421" viewBox="0 0 519 421" version="1.1"><path d="M 146 41.970 C 113.975 47.882, 88.464 60.710, 67.389 81.500 C 50.594 98.067, 39.518 115.291, 32.022 136.500 C 26.525 152.051, 24.928 160.959, 24.316 179.500 C 23.213 212.912, 29.793 237.358, 48.007 267.511 C 50.753 272.058, 53 276.914, 53 278.303 C 53 279.692, 51.383 285.030, 49.408 290.164 C 44.006 304.202, 34 333.012, 34 334.526 C 34 336.889, 37.056 339, 40.478 339 C 42.367 339, 51.112 335.916, 60.656 331.883 C 88.090 320.290, 95.712 317.222, 98.685 316.574 C 100.733 316.128, 103.464 316.904, 108.706 319.420 C 127.382 328.386, 142.782 331.985, 165.500 332.692 C 186.037 333.332, 199.689 331.381, 218.957 325.054 C 225.748 322.824, 231.585 321, 231.928 321 C 232.271 321, 236.208 325.215, 240.676 330.366 C 268.546 362.496, 306.256 380, 347.604 380 C 367.732 380, 382.912 377.138, 398.844 370.340 C 412.116 364.677, 412.204 364.693, 442.084 378.327 C 467.729 390.028, 472.517 391.492, 475.073 388.412 C 477.471 385.522, 476.245 380.694, 468.241 361.500 C 457.974 336.881, 456.498 332.398, 457.751 329.647 C 458.290 328.464, 461.334 323.897, 464.516 319.498 C 475.144 304.805, 483.608 284.319, 487.652 263.500 C 490.320 249.763, 490.061 223.758, 487.118 210 C 481.034 181.559, 468.618 158.283, 448.854 138.267 C 427.292 116.429, 401.502 102.945, 371.506 97.825 C 361.478 96.114, 356.781 95.864, 343 96.308 C 325.986 96.855, 319.044 97.977, 303.713 102.656 L 294.925 105.338 293.263 102.966 C 287.625 94.915, 275.485 81.868, 267.171 74.922 C 247.632 58.599, 226.549 48.382, 201.159 42.930 C 186.752 39.836, 160.073 39.372, 146 41.970 M 159.364 53.065 C 136.599 54.818, 113.677 62.737, 93.532 75.807 C 85.044 81.314, 64.834 101.264, 59.603 109.300 C 50.055 123.966, 44.114 137.520, 39.868 154.328 C 36.845 166.293, 36.127 194.091, 38.477 208.178 C 41.736 227.715, 47.130 241.689, 58.867 261 C 67.755 275.625, 68.003 277.292, 63.029 289 C 58.087 300.634, 51.083 322, 52.211 322 C 52.768 322, 61.693 318.427, 72.044 314.059 C 101.267 301.728, 101.557 301.685, 113.777 307.876 C 121.538 311.808, 134.918 316.310, 145.500 318.551 C 157.801 321.156, 184.404 320.938, 197.750 318.124 C 206.374 316.305, 225 310.437, 225 309.539 C 225 309.390, 222.996 305.037, 220.546 299.866 C 215.164 288.504, 210.682 275.091, 208.318 263.270 C 205.656 249.960, 205.902 223.991, 208.830 209.237 C 214.492 180.705, 226.423 158.508, 247.460 137.363 C 257.351 127.421, 266.678 120.330, 281.477 111.500 C 282.953 110.620, 282.564 109.722, 278.230 104 C 271.814 95.531, 258.368 82.872, 248.694 76.193 C 230.254 63.461, 206.659 55.105, 183.389 53.064 C 176.850 52.490, 171.050 52.080, 170.500 52.153 C 169.950 52.225, 164.939 52.636, 159.364 53.065 M 335.500 108.628 C 324.850 109.785, 302 115.097, 302 116.415 C 302 116.600, 303.512 120.069, 305.360 124.125 C 314.508 144.206, 318.367 162.497, 318.308 185.500 C 318.202 227.180, 304.849 259.356, 275.563 288.508 C 265.331 298.692, 248.949 311.850, 244.763 313.246 C 241.743 314.252, 259.617 333.617, 272.500 343.297 C 280.940 349.638, 298.186 358.467, 308.863 361.912 C 338.791 371.571, 376.300 368.938, 403.414 355.276 C 406.117 353.914, 409.717 352.803, 411.414 352.806 C 413.173 352.810, 423.958 357.098, 436.500 362.781 C 448.600 368.263, 458.630 372.417, 458.788 372.010 C 458.947 371.604, 455.684 362.852, 451.538 352.562 C 446.900 341.049, 444.001 332.438, 444.004 330.176 C 444.008 326.202, 445.269 323.911, 452.843 314.126 C 459.602 305.394, 466.243 292.451, 470.375 279.959 C 483.580 240.043, 477.131 195.797, 453.188 162.048 C 435.180 136.665, 405.314 117.133, 375.162 111.022 C 365.096 108.981, 343.981 107.707, 335.500 108.628 M 281.437 126.161 C 254.541 142.293, 233.841 168.322, 224.704 197.500 C 220.172 211.973, 218.666 224.428, 219.274 242.400 C 219.859 259.702, 221.958 270.434, 227.520 284.574 C 229.686 290.079, 235.046 300.861, 236.613 302.867 C 237.223 303.646, 247.922 296.428, 256.803 289.245 C 280.769 269.860, 296.982 243.402, 303.665 212.768 C 306.405 200.206, 306.116 171.178, 303.110 157 C 300.129 142.947, 291.783 122, 289.164 122 C 288.729 122, 285.252 123.872, 281.437 126.161" stroke="none" fill="#64a5a3" fill-rule="evenodd"/><path d="M 0 210.502 L 0 421.004 259.750 420.752 L 519.500 420.500 519.752 210.250 L 520.005 -0 260.002 -0 L 0 0 0 210.502 M 0.491 211 C 0.491 326.775, 0.607 374.137, 0.750 316.250 C 0.893 258.362, 0.893 163.637, 0.750 105.750 C 0.607 47.862, 0.491 95.225, 0.491 211 M 146 41.970 C 113.975 47.882, 88.464 60.710, 67.389 81.500 C 50.594 98.067, 39.518 115.291, 32.022 136.500 C 26.525 152.051, 24.928 160.959, 24.316 179.500 C 23.213 212.912, 29.793 237.358, 48.007 267.511 C 50.753 272.058, 53 276.914, 53 278.303 C 53 279.692, 51.383 285.030, 49.408 290.164 C 44.006 304.202, 34 333.012, 34 334.526 C 34 336.889, 37.056 339, 40.478 339 C 42.367 339, 51.112 335.916, 60.656 331.883 C 88.090 320.290, 95.712 317.222, 98.685 316.574 C 100.733 316.128, 103.464 316.904, 108.706 319.420 C 127.382 328.386, 142.782 331.985, 165.500 332.692 C 186.037 333.332, 199.689 331.381, 218.957 325.054 C 225.748 322.824, 231.585 321, 231.928 321 C 232.271 321, 236.208 325.215, 240.676 330.366 C 268.546 362.496, 306.256 380, 347.604 380 C 367.732 380, 382.912 377.138, 398.844 370.340 C 412.116 364.677, 412.204 364.693, 442.084 378.327 C 467.729 390.028, 472.517 391.492, 475.073 388.412 C 477.471 385.522, 476.245 380.694, 468.241 361.500 C 457.974 336.881, 456.498 332.398, 457.751 329.647 C 458.290 328.464, 461.334 323.897, 464.516 319.498 C 475.144 304.805, 483.608 284.319, 487.652 263.500 C 490.320 249.763, 490.061 223.758, 487.118 210 C 481.034 181.559, 468.618 158.283, 448.854 138.267 C 427.292 116.429, 401.502 102.945, 371.506 97.825 C 361.478 96.114, 356.781 95.864, 343 96.308 C 325.986 96.855, 319.044 97.977, 303.713 102.656 L 294.925 105.338 293.263 102.966 C 287.625 94.915, 275.485 81.868, 267.171 74.922 C 247.632 58.599, 226.549 48.382, 201.159 42.930 C 186.752 39.836, 160.073 39.372, 146 41.970 M 159.364 53.065 C 136.599 54.818, 113.677 62.737, 93.532 75.807 C 85.044 81.314, 64.834 101.264, 59.603 109.300 C 50.055 123.966, 44.114 137.520, 39.868 154.328 C 36.845 166.293, 36.127 194.091, 38.477 208.178 C 41.736 227.715, 47.130 241.689, 58.867 261 C 67.755 275.625, 68.003 277.292, 63.029 289 C 58.087 300.634, 51.083 322, 52.211 322 C 52.768 322, 61.693 318.427, 72.044 314.059 C 101.267 301.728, 101.557 301.685, 113.777 307.876 C 121.538 311.808, 134.918 316.310, 145.500 318.551 C 157.801 321.156, 184.404 320.938, 197.750 318.124 C 206.374 316.305, 225 310.437, 225 309.539 C 225 309.390, 222.996 305.037, 220.546 299.866 C 215.164 288.504, 210.682 275.091, 208.318 263.270 C 205.656 249.960, 205.902 223.991, 208.830 209.237 C 214.492 180.705, 226.423 158.508, 247.460 137.363 C 257.351 127.421, 266.678 120.330, 281.477 111.500 C 282.953 110.620, 282.564 109.722, 278.230 104 C 271.814 95.531, 258.368 82.872, 248.694 76.193 C 230.254 63.461, 206.659 55.105, 183.389 53.064 C 176.850 52.490, 171.050 52.080, 170.500 52.153 C 169.950 52.225, 164.939 52.636, 159.364 53.065 M 335.500 108.628 C 324.850 109.785, 302 115.097, 302 116.415 C 302 116.600, 303.512 120.069, 305.360 124.125 C 314.508 144.206, 318.367 162.497, 318.308 185.500 C 318.202 227.180, 304.849 259.356, 275.563 288.508 C 265.331 298.692, 248.949 311.850, 244.763 313.246 C 241.743 314.252, 259.617 333.617, 272.500 343.297 C 280.940 349.638, 298.186 358.467, 308.863 361.912 C 338.791 371.571, 376.300 368.938, 403.414 355.276 C 406.117 353.914, 409.717 352.803, 411.414 352.806 C 413.173 352.810, 423.958 357.098, 436.500 362.781 C 448.600 368.263, 458.630 372.417, 458.788 372.010 C 458.947 371.604, 455.684 362.852, 451.538 352.562 C 446.900 341.049, 444.001 332.438, 444.004 330.176 C 444.008 326.202, 445.269 323.911, 452.843 314.126 C 459.602 305.394, 466.243 292.451, 470.375 279.959 C 483.580 240.043, 477.131 195.797, 453.188 162.048 C 435.180 136.665, 405.314 117.133, 375.162 111.022 C 365.096 108.981, 343.981 107.707, 335.500 108.628 M 281.437 126.161 C 254.541 142.293, 233.841 168.322, 224.704 197.500 C 220.172 211.973, 218.666 224.428, 219.274 242.400 C 219.859 259.702, 221.958 270.434, 227.520 284.574 C 229.686 290.079, 235.046 300.861, 236.613 302.867 C 237.223 303.646, 247.922 296.428, 256.803 289.245 C 280.769 269.860, 296.982 243.402, 303.665 212.768 C 306.405 200.206, 306.116 171.178, 303.110 157 C 300.129 142.947, 291.783 122, 289.164 122 C 288.729 122, 285.252 123.872, 281.437 126.161" stroke="none" fill="#fbfbfb" fill-rule="evenodd"/></svg>