<svg xmlns="http://www.w3.org/2000/svg" width="1024" height="1024" viewBox="0 0 1024 1024" version="1.1"><path d="M 396 243.546 C 362.939 248.807, 336.701 262.028, 313.948 284.892 C 293.303 305.637, 281.633 326.827, 274.835 355.911 C 272.014 367.980, 271.238 396.686, 273.360 410.500 C 276.417 430.409, 283.064 448.314, 294.590 467.690 C 298.116 473.616, 301 479.250, 301 480.210 C 301 481.169, 299.840 485.002, 298.423 488.727 C 291.811 506.107, 282 534.414, 282 536.112 C 282 539.419, 285.799 542.290, 289.260 541.598 C 290.938 541.262, 304.163 536.041, 318.649 529.994 C 335.161 523.101, 346.294 519, 348.492 519 C 350.501 519, 354.880 520.461, 358.749 522.422 C 383.266 534.848, 417.877 538.691, 448.860 532.427 C 453.062 531.578, 461.884 529.067, 468.464 526.847 L 480.427 522.811 483.374 526.656 C 484.995 528.770, 491.312 535.467, 497.411 541.537 C 514.289 558.337, 530.145 568.133, 552.352 575.482 C 584.102 585.989, 623.556 584.120, 651.828 570.770 C 656.234 568.689, 659.023 567.955, 661.010 568.352 C 662.579 568.666, 675.330 574.097, 689.346 580.421 C 703.361 586.745, 715.899 592.187, 717.207 592.516 C 720.441 593.327, 725 589.704, 725 586.323 C 725 584.930, 722.722 578.374, 719.937 571.753 C 711.815 552.444, 705 535.071, 705 533.675 C 705 532.964, 708.093 528.047, 711.873 522.749 C 743.769 478.039, 746.611 416.873, 719.032 368.670 C 702.175 339.208, 672.801 315.268, 640.500 304.665 C 626.434 300.048, 619.259 298.912, 600.500 298.333 C 579.918 297.697, 570.378 298.879, 553.151 304.200 C 543.995 307.028, 542.700 307.216, 541.921 305.824 C 541.437 304.958, 538.176 300.707, 534.675 296.375 C 511.645 267.885, 477.794 248.664, 441.500 243.468 C 429.167 241.703, 407.351 241.740, 396 243.546 M 395.500 256.608 C 343.554 265.881, 303.832 300.965, 289.633 350.112 C 286.204 361.981, 284.999 371.792, 285.003 387.822 C 285.010 416.437, 292.125 439.604, 309.447 467.416 C 312.501 472.319, 315 477.371, 315 478.643 C 315 479.914, 313.827 484.002, 312.394 487.727 C 308.699 497.333, 299.078 524.424, 299.308 524.578 C 299.414 524.649, 309.384 520.521, 321.465 515.405 C 333.545 510.289, 345.122 505.817, 347.191 505.468 C 350.281 504.946, 352.517 505.552, 359.726 508.870 C 382.470 519.338, 395.321 522.267, 418.500 522.267 C 431.010 522.267, 436.723 521.800, 444.694 520.126 C 453.483 518.280, 471.486 512.848, 472.640 511.693 C 472.852 511.482, 470.817 506.627, 468.118 500.904 C 457.399 478.172, 454.574 465.337, 454.604 439.500 C 454.622 423.807, 455.004 418.742, 456.802 410.396 C 462.762 382.726, 473.891 361.541, 492.836 341.803 C 503.141 331.067, 514.168 322.241, 524.487 316.470 L 531 312.828 527.750 308.164 C 521.894 299.760, 505.917 284.719, 495.439 277.743 C 478.676 266.584, 461.957 259.870, 442.619 256.533 C 431.477 254.610, 406.468 254.650, 395.500 256.608 M 586.500 310.602 C 577.244 311.477, 566.965 313.373, 559.021 315.671 C 554.358 317.020, 550.417 318.250, 550.262 318.404 C 550.108 318.558, 551.746 322.468, 553.901 327.092 C 567.222 355.668, 570.343 391.414, 562.386 424.274 C 557.050 446.312, 544.436 469.437, 528.035 487.252 C 521.428 494.429, 505.953 507.300, 497.254 512.854 L 492.008 516.203 494.243 519.352 C 495.471 521.083, 499.854 526.040, 503.982 530.366 C 541.040 569.205, 598.364 580.354, 648.581 558.488 L 659.273 553.832 663.886 555.576 C 666.424 556.534, 676.825 561.112, 687 565.748 C 697.175 570.384, 706.026 574.397, 706.669 574.665 C 707.313 574.933, 704.726 567.638, 700.922 558.453 C 692.836 538.932, 691.028 533.302, 691.708 529.746 C 691.982 528.315, 694.510 524.300, 697.327 520.822 C 709.036 506.367, 717.758 487.818, 722.165 468 C 725.224 454.246, 725.509 427.173, 722.731 414.308 C 712.971 369.102, 681.689 332.886, 639.234 317.641 C 625.123 312.573, 600.468 309.283, 586.500 310.602 M 531.015 327.632 C 510.311 339.155, 491.363 359.259, 480.244 381.500 C 471.785 398.422, 468.065 413.691, 467.333 434.500 C 466.705 452.358, 468.323 464.235, 473.484 479.658 C 476.178 487.708, 482.892 503.006, 484.534 504.834 C 484.699 505.017, 487.459 503.491, 490.667 501.443 C 522.159 481.332, 543.592 451.019, 551.128 415.934 C 552.967 407.374, 553.369 402.357, 553.369 388 C 553.369 368.874, 551.574 357.287, 546.359 342.766 C 544.052 336.341, 538.369 323.981, 537.736 324.011 C 537.606 324.018, 534.582 325.647, 531.015 327.632 M 208.905 656.843 C 187.117 664.026, 174.983 686.369, 178.927 712.044 C 181.314 727.582, 189.557 739.201, 202.858 745.774 C 210.312 749.458, 210.531 749.500, 222.448 749.477 C 232.653 749.458, 235.381 749.103, 240.247 747.157 C 248.138 744.001, 256.558 736.114, 260.158 728.505 C 264.417 719.501, 264.229 719, 256.595 719 L 250.191 719 247.207 724.286 C 241.892 733.704, 232.630 738.475, 221.008 737.780 C 211.793 737.229, 206.891 734.899, 200.887 728.215 C 195.768 722.515, 193.215 716.113, 192.344 706.786 C 190.860 690.886, 197.068 677.160, 208.887 670.212 C 212.984 667.803, 214.506 667.501, 222.500 667.507 C 229.810 667.513, 232.264 667.922, 235.568 669.685 C 240.670 672.406, 246.385 678.658, 248.095 683.385 L 249.402 687 256.309 687 L 263.217 687 262.546 684.250 C 259.866 673.271, 251.889 663.722, 241.201 658.701 C 235.301 655.929, 233.304 655.519, 224.500 655.276 C 216.889 655.065, 213.163 655.439, 208.905 656.843 M 582.856 657.253 C 563.233 664.128, 553 679.924, 553 703.339 C 553 723.443, 561.921 738.331, 578.741 746.299 C 585.182 749.350, 586.066 749.500, 597.552 749.500 C 609.472 749.500, 609.687 749.459, 617.223 745.734 C 626.367 741.215, 632.950 734.422, 635.946 726.414 C 637.076 723.395, 638 720.492, 638 719.962 C 638 719.433, 634.899 719, 631.108 719 C 624.549 719, 624.186 719.123, 623.575 721.559 C 622.696 725.060, 615.464 732.702, 610.545 735.327 C 607.266 737.077, 604.795 737.487, 597.500 737.493 C 589.394 737.499, 587.970 737.207, 583.167 734.546 C 577.095 731.182, 574.045 727.906, 570.195 720.607 C 567.685 715.850, 567.500 714.644, 567.500 703 C 567.500 692.183, 567.800 689.850, 569.729 685.670 C 573.281 677.974, 577.528 673.392, 584.196 670.060 C 591.413 666.454, 599.606 665.965, 607.537 668.667 C 613.464 670.687, 621.199 678.042, 622.938 683.313 L 624.155 687 631.185 687 C 636.387 687, 638.094 686.675, 637.753 685.750 C 637.499 685.063, 636.508 682.117, 635.550 679.204 C 633.129 671.840, 624.799 663.011, 616.349 658.851 C 610.625 656.033, 608.708 655.624, 599.690 655.296 C 590.979 654.979, 588.536 655.263, 582.856 657.253 M 294.300 683.802 C 276.187 690.270, 267.880 708.452, 273.995 728.248 C 276.611 736.719, 282.350 743.304, 290.460 747.141 C 295.582 749.564, 297.753 749.999, 304.739 749.999 C 319.323 750.001, 328.531 744.758, 334.215 733.217 C 337.266 727.022, 337.500 725.834, 337.500 716.524 C 337.500 704.318, 335.607 698.632, 329.296 691.886 C 323.550 685.743, 316.666 682.787, 307 682.313 C 301.479 682.042, 298.128 682.435, 294.300 683.802 M 374.684 683.388 C 370.568 684.922, 367.790 686.936, 364.255 690.950 L 362.010 693.500 362.005 688.750 L 362 684 356 684 L 350 684 350 716.500 L 350 749 355.929 749 L 361.858 749 362.179 727.750 C 362.489 707.249, 362.588 706.341, 365 702 C 366.752 698.846, 368.835 696.827, 371.962 695.250 C 377.405 692.505, 381.168 692.439, 386.788 694.990 C 393.636 698.098, 394.128 700.244, 394.039 726.605 L 393.964 749 400.544 749 L 407.125 749 406.812 723.719 C 406.505 698.863, 406.457 698.355, 403.945 693.478 C 400.334 686.468, 394.285 682.864, 385.269 682.351 C 380.970 682.106, 377.108 682.484, 374.684 683.388 M 499.332 683.791 C 484.847 688.965, 477.393 701.138, 478.172 718.345 C 478.814 732.528, 486.228 743.679, 497.951 748.098 C 505.449 750.924, 519.395 750.463, 525.722 747.179 C 537.116 741.266, 542.201 732.724, 542.825 718.450 C 543.314 707.272, 541.537 700.301, 536.526 693.737 C 529.061 683.961, 511.788 679.342, 499.332 683.791 M 739.324 683.439 C 729.467 686.522, 721.250 694.894, 718.374 704.784 C 715.999 712.957, 716.917 725.267, 720.441 732.468 C 724.057 739.859, 731.655 746.553, 738.779 748.624 C 750.051 751.901, 762.503 749.496, 770.916 742.418 C 773.760 740.024, 779.813 730.089, 778.517 729.941 C 778.233 729.909, 775.254 729.856, 771.897 729.824 C 766.306 729.770, 765.642 729.997, 763.982 732.527 C 760.775 737.416, 756.279 739.500, 748.937 739.500 C 743.429 739.500, 741.675 739.051, 738.197 736.749 C 733.762 733.814, 730.602 728.727, 729.472 722.703 L 728.777 719 753.889 719 L 779 719 779 714.605 C 779 712.188, 778.058 707.160, 776.906 703.431 C 774.117 694.402, 766.107 686, 757.987 683.589 C 751.627 681.700, 745.056 681.647, 739.324 683.439 M 804.994 682.876 C 795.904 685.851, 789.473 692.533, 788.994 699.500 C 788.528 706.279, 789.092 708.956, 791.619 711.959 C 795.188 716.201, 798.607 717.830, 811.837 721.591 C 818.839 723.582, 824.096 725.681, 825.587 727.081 C 832.387 733.470, 823.802 741.310, 811.773 739.696 C 805.958 738.916, 802.196 735.903, 800.604 730.750 C 800.165 729.331, 798.897 729, 793.900 729 L 787.737 729 788.269 732.972 C 789.077 738.991, 792.523 743.711, 798.354 746.782 C 803.044 749.253, 804.475 749.493, 814.500 749.496 C 824.033 749.500, 826.137 749.186, 830.277 747.148 C 837.080 743.798, 840.286 739.195, 840.804 732.036 C 841.324 724.844, 839.137 719.769, 834.094 716.471 C 832.117 715.178, 824.875 712.479, 818 710.473 C 804.022 706.396, 800.291 703.960, 801.380 699.623 C 802.775 694.062, 809.565 691.077, 817.452 692.557 C 821.872 693.386, 827 697.431, 827 700.089 C 827 701.777, 827.769 702, 833.579 702 L 840.159 702 839.506 698.750 C 838.456 693.519, 833.930 687.840, 828.645 685.120 C 824.886 683.186, 821.993 682.567, 815.654 682.344 C 811.169 682.186, 806.372 682.425, 804.994 682.876 M 412.696 685.203 C 413.257 685.916, 417.460 696.625, 422.036 709 C 426.612 721.375, 431.791 735.325, 433.545 740 L 436.733 748.500 443.990 748.500 L 451.248 748.500 461.614 721.500 C 467.316 706.650, 472.879 692.138, 473.976 689.250 L 475.972 684 469.236 684.010 L 462.500 684.020 459.607 692.760 C 454.139 709.278, 444.741 735.075, 444.338 734.672 C 444.116 734.450, 439.969 723.070, 435.122 709.384 L 426.308 684.500 418.993 684.203 C 413.112 683.964, 411.877 684.160, 412.696 685.203 M 649 709.749 C 649.543 737.727, 649.699 738.534, 655.661 744.197 C 659.737 748.069, 665.083 750, 671.724 750 C 679.308 750, 683.535 748.708, 688.189 744.969 L 692 741.906 692 745.453 L 692 749 698.500 749 L 705 749 705 716.500 L 705 684 698.500 684 L 692 684 691.978 705.250 C 691.959 723.974, 691.730 726.998, 690.053 730.691 C 684.916 742.006, 665.783 741.858, 662.353 730.478 C 661.596 727.966, 661.125 718.667, 661.077 705.250 L 661 684 654.750 683.999 L 648.500 683.997 649 709.749 M 297.655 694.399 C 287.811 698.062, 282.613 709.412, 285.004 722.022 C 287.075 732.940, 293.976 739, 304.338 739 C 311.339 739, 315.796 737.075, 320.276 732.116 C 328.785 722.697, 326.746 703.840, 316.445 696.705 C 311.466 693.255, 303.392 692.264, 297.655 694.399 M 503.655 694.459 C 494.891 697.583, 490.590 704.839, 490.590 716.500 C 490.590 731.297, 497.378 739.033, 510.315 738.978 C 522.852 738.925, 530.976 730.068, 530.994 716.432 C 531.017 699.998, 517.834 689.403, 503.655 694.459 M 738.761 695.062 C 734.747 697.182, 733.003 699.342, 730.538 705.250 L 728.973 709 747.917 709 L 766.860 709 765.933 705.750 C 764.721 701.507, 762.101 698.034, 758.010 695.250 C 753.644 692.278, 744.208 692.186, 738.761 695.062" stroke="none" fill="#4b7b7e" fill-rule="evenodd"/><path d="M 0 512.001 L 0 1024.002 512.250 1023.751 L 1024.500 1023.500 1024.751 511.750 L 1025.002 0 512.501 0 L 0 0 0 512.001 M 0.496 512.500 C 0.496 794.100, 0.610 909.151, 0.750 768.168 C 0.890 627.186, 0.890 396.786, 0.750 256.168 C 0.610 115.551, 0.496 230.900, 0.496 512.500 M 396 243.546 C 362.939 248.807, 336.701 262.028, 313.948 284.892 C 293.303 305.637, 281.633 326.827, 274.835 355.911 C 272.014 367.980, 271.238 396.686, 273.360 410.500 C 276.417 430.409, 283.064 448.314, 294.590 467.690 C 298.116 473.616, 301 479.250, 301 480.210 C 301 481.169, 299.840 485.002, 298.423 488.727 C 291.811 506.107, 282 534.414, 282 536.112 C 282 539.419, 285.799 542.290, 289.260 541.598 C 290.938 541.262, 304.163 536.041, 318.649 529.994 C 335.161 523.101, 346.294 519, 348.492 519 C 350.501 519, 354.880 520.461, 358.749 522.422 C 383.266 534.848, 417.877 538.691, 448.860 532.427 C 453.062 531.578, 461.884 529.067, 468.464 526.847 L 480.427 522.811 483.374 526.656 C 484.995 528.770, 491.312 535.467, 497.411 541.537 C 514.289 558.337, 530.145 568.133, 552.352 575.482 C 584.102 585.989, 623.556 584.120, 651.828 570.770 C 656.234 568.689, 659.023 567.955, 661.010 568.352 C 662.579 568.666, 675.330 574.097, 689.346 580.421 C 703.361 586.745, 715.899 592.187, 717.207 592.516 C 720.441 593.327, 725 589.704, 725 586.323 C 725 584.930, 722.722 578.374, 719.937 571.753 C 711.815 552.444, 705 535.071, 705 533.675 C 705 532.964, 708.093 528.047, 711.873 522.749 C 743.769 478.039, 746.611 416.873, 719.032 368.670 C 702.175 339.208, 672.801 315.268, 640.500 304.665 C 626.434 300.048, 619.259 298.912, 600.500 298.333 C 579.918 297.697, 570.378 298.879, 553.151 304.200 C 543.995 307.028, 542.700 307.216, 541.921 305.824 C 541.437 304.958, 538.176 300.707, 534.675 296.375 C 511.645 267.885, 477.794 248.664, 441.500 243.468 C 429.167 241.703, 407.351 241.740, 396 243.546 M 395.500 256.608 C 343.554 265.881, 303.832 300.965, 289.633 350.112 C 286.204 361.981, 284.999 371.792, 285.003 387.822 C 285.010 416.437, 292.125 439.604, 309.447 467.416 C 312.501 472.319, 315 477.371, 315 478.643 C 315 479.914, 313.827 484.002, 312.394 487.727 C 308.699 497.333, 299.078 524.424, 299.308 524.578 C 299.414 524.649, 309.384 520.521, 321.465 515.405 C 333.545 510.289, 345.122 505.817, 347.191 505.468 C 350.281 504.946, 352.517 505.552, 359.726 508.870 C 382.470 519.338, 395.321 522.267, 418.500 522.267 C 431.010 522.267, 436.723 521.800, 444.694 520.126 C 453.483 518.280, 471.486 512.848, 472.640 511.693 C 472.852 511.482, 470.817 506.627, 468.118 500.904 C 457.399 478.172, 454.574 465.337, 454.604 439.500 C 454.622 423.807, 455.004 418.742, 456.802 410.396 C 462.762 382.726, 473.891 361.541, 492.836 341.803 C 503.141 331.067, 514.168 322.241, 524.487 316.470 L 531 312.828 527.750 308.164 C 521.894 299.760, 505.917 284.719, 495.439 277.743 C 478.676 266.584, 461.957 259.870, 442.619 256.533 C 431.477 254.610, 406.468 254.650, 395.500 256.608 M 586.500 310.602 C 577.244 311.477, 566.965 313.373, 559.021 315.671 C 554.358 317.020, 550.417 318.250, 550.262 318.404 C 550.108 318.558, 551.746 322.468, 553.901 327.092 C 567.222 355.668, 570.343 391.414, 562.386 424.274 C 557.050 446.312, 544.436 469.437, 528.035 487.252 C 521.428 494.429, 505.953 507.300, 497.254 512.854 L 492.008 516.203 494.243 519.352 C 495.471 521.083, 499.854 526.040, 503.982 530.366 C 541.040 569.205, 598.364 580.354, 648.581 558.488 L 659.273 553.832 663.886 555.576 C 666.424 556.534, 676.825 561.112, 687 565.748 C 697.175 570.384, 706.026 574.397, 706.669 574.665 C 707.313 574.933, 704.726 567.638, 700.922 558.453 C 692.836 538.932, 691.028 533.302, 691.708 529.746 C 691.982 528.315, 694.510 524.300, 697.327 520.822 C 709.036 506.367, 717.758 487.818, 722.165 468 C 725.224 454.246, 725.509 427.173, 722.731 414.308 C 712.971 369.102, 681.689 332.886, 639.234 317.641 C 625.123 312.573, 600.468 309.283, 586.500 310.602 M 531.015 327.632 C 510.311 339.155, 491.363 359.259, 480.244 381.500 C 471.785 398.422, 468.065 413.691, 467.333 434.500 C 466.705 452.358, 468.323 464.235, 473.484 479.658 C 476.178 487.708, 482.892 503.006, 484.534 504.834 C 484.699 505.017, 487.459 503.491, 490.667 501.443 C 522.159 481.332, 543.592 451.019, 551.128 415.934 C 552.967 407.374, 553.369 402.357, 553.369 388 C 553.369 368.874, 551.574 357.287, 546.359 342.766 C 544.052 336.341, 538.369 323.981, 537.736 324.011 C 537.606 324.018, 534.582 325.647, 531.015 327.632 M 208.905 656.843 C 187.117 664.026, 174.983 686.369, 178.927 712.044 C 181.314 727.582, 189.557 739.201, 202.858 745.774 C 210.312 749.458, 210.531 749.500, 222.448 749.477 C 232.653 749.458, 235.381 749.103, 240.247 747.157 C 248.138 744.001, 256.558 736.114, 260.158 728.505 C 264.417 719.501, 264.229 719, 256.595 719 L 250.191 719 247.207 724.286 C 241.892 733.704, 232.630 738.475, 221.008 737.780 C 211.793 737.229, 206.891 734.899, 200.887 728.215 C 195.768 722.515, 193.215 716.113, 192.344 706.786 C 190.860 690.886, 197.068 677.160, 208.887 670.212 C 212.984 667.803, 214.506 667.501, 222.500 667.507 C 229.810 667.513, 232.264 667.922, 235.568 669.685 C 240.670 672.406, 246.385 678.658, 248.095 683.385 L 249.402 687 256.309 687 L 263.217 687 262.546 684.250 C 259.866 673.271, 251.889 663.722, 241.201 658.701 C 235.301 655.929, 233.304 655.519, 224.500 655.276 C 216.889 655.065, 213.163 655.439, 208.905 656.843 M 582.856 657.253 C 563.233 664.128, 553 679.924, 553 703.339 C 553 723.443, 561.921 738.331, 578.741 746.299 C 585.182 749.350, 586.066 749.500, 597.552 749.500 C 609.472 749.500, 609.687 749.459, 617.223 745.734 C 626.367 741.215, 632.950 734.422, 635.946 726.414 C 637.076 723.395, 638 720.492, 638 719.962 C 638 719.433, 634.899 719, 631.108 719 C 624.549 719, 624.186 719.123, 623.575 721.559 C 622.696 725.060, 615.464 732.702, 610.545 735.327 C 607.266 737.077, 604.795 737.487, 597.500 737.493 C 589.394 737.499, 587.970 737.207, 583.167 734.546 C 577.095 731.182, 574.045 727.906, 570.195 720.607 C 567.685 715.850, 567.500 714.644, 567.500 703 C 567.500 692.183, 567.800 689.850, 569.729 685.670 C 573.281 677.974, 577.528 673.392, 584.196 670.060 C 591.413 666.454, 599.606 665.965, 607.537 668.667 C 613.464 670.687, 621.199 678.042, 622.938 683.313 L 624.155 687 631.185 687 C 636.387 687, 638.094 686.675, 637.753 685.750 C 637.499 685.063, 636.508 682.117, 635.550 679.204 C 633.129 671.840, 624.799 663.011, 616.349 658.851 C 610.625 656.033, 608.708 655.624, 599.690 655.296 C 590.979 654.979, 588.536 655.263, 582.856 657.253 M 294.300 683.802 C 276.187 690.270, 267.880 708.452, 273.995 728.248 C 276.611 736.719, 282.350 743.304, 290.460 747.141 C 295.582 749.564, 297.753 749.999, 304.739 749.999 C 319.323 750.001, 328.531 744.758, 334.215 733.217 C 337.266 727.022, 337.500 725.834, 337.500 716.524 C 337.500 704.318, 335.607 698.632, 329.296 691.886 C 323.550 685.743, 316.666 682.787, 307 682.313 C 301.479 682.042, 298.128 682.435, 294.300 683.802 M 374.684 683.388 C 370.568 684.922, 367.790 686.936, 364.255 690.950 L 362.010 693.500 362.005 688.750 L 362 684 356 684 L 350 684 350 716.500 L 350 749 355.929 749 L 361.858 749 362.179 727.750 C 362.489 707.249, 362.588 706.341, 365 702 C 366.752 698.846, 368.835 696.827, 371.962 695.250 C 377.405 692.505, 381.168 692.439, 386.788 694.990 C 393.636 698.098, 394.128 700.244, 394.039 726.605 L 393.964 749 400.544 749 L 407.125 749 406.812 723.719 C 406.505 698.863, 406.457 698.355, 403.945 693.478 C 400.334 686.468, 394.285 682.864, 385.269 682.351 C 380.970 682.106, 377.108 682.484, 374.684 683.388 M 499.332 683.791 C 484.847 688.965, 477.393 701.138, 478.172 718.345 C 478.814 732.528, 486.228 743.679, 497.951 748.098 C 505.449 750.924, 519.395 750.463, 525.722 747.179 C 537.116 741.266, 542.201 732.724, 542.825 718.450 C 543.314 707.272, 541.537 700.301, 536.526 693.737 C 529.061 683.961, 511.788 679.342, 499.332 683.791 M 739.324 683.439 C 729.467 686.522, 721.250 694.894, 718.374 704.784 C 715.999 712.957, 716.917 725.267, 720.441 732.468 C 724.057 739.859, 731.655 746.553, 738.779 748.624 C 750.051 751.901, 762.503 749.496, 770.916 742.418 C 773.760 740.024, 779.813 730.089, 778.517 729.941 C 778.233 729.909, 775.254 729.856, 771.897 729.824 C 766.306 729.770, 765.642 729.997, 763.982 732.527 C 760.775 737.416, 756.279 739.500, 748.937 739.500 C 743.429 739.500, 741.675 739.051, 738.197 736.749 C 733.762 733.814, 730.602 728.727, 729.472 722.703 L 728.777 719 753.889 719 L 779 719 779 714.605 C 779 712.188, 778.058 707.160, 776.906 703.431 C 774.117 694.402, 766.107 686, 757.987 683.589 C 751.627 681.700, 745.056 681.647, 739.324 683.439 M 804.994 682.876 C 795.904 685.851, 789.473 692.533, 788.994 699.500 C 788.528 706.279, 789.092 708.956, 791.619 711.959 C 795.188 716.201, 798.607 717.830, 811.837 721.591 C 818.839 723.582, 824.096 725.681, 825.587 727.081 C 832.387 733.470, 823.802 741.310, 811.773 739.696 C 805.958 738.916, 802.196 735.903, 800.604 730.750 C 800.165 729.331, 798.897 729, 793.900 729 L 787.737 729 788.269 732.972 C 789.077 738.991, 792.523 743.711, 798.354 746.782 C 803.044 749.253, 804.475 749.493, 814.500 749.496 C 824.033 749.500, 826.137 749.186, 830.277 747.148 C 837.080 743.798, 840.286 739.195, 840.804 732.036 C 841.324 724.844, 839.137 719.769, 834.094 716.471 C 832.117 715.178, 824.875 712.479, 818 710.473 C 804.022 706.396, 800.291 703.960, 801.380 699.623 C 802.775 694.062, 809.565 691.077, 817.452 692.557 C 821.872 693.386, 827 697.431, 827 700.089 C 827 701.777, 827.769 702, 833.579 702 L 840.159 702 839.506 698.750 C 838.456 693.519, 833.930 687.840, 828.645 685.120 C 824.886 683.186, 821.993 682.567, 815.654 682.344 C 811.169 682.186, 806.372 682.425, 804.994 682.876 M 412.696 685.203 C 413.257 685.916, 417.460 696.625, 422.036 709 C 426.612 721.375, 431.791 735.325, 433.545 740 L 436.733 748.500 443.990 748.500 L 451.248 748.500 461.614 721.500 C 467.316 706.650, 472.879 692.138, 473.976 689.250 L 475.972 684 469.236 684.010 L 462.500 684.020 459.607 692.760 C 454.139 709.278, 444.741 735.075, 444.338 734.672 C 444.116 734.450, 439.969 723.070, 435.122 709.384 L 426.308 684.500 418.993 684.203 C 413.112 683.964, 411.877 684.160, 412.696 685.203 M 649 709.749 C 649.543 737.727, 649.699 738.534, 655.661 744.197 C 659.737 748.069, 665.083 750, 671.724 750 C 679.308 750, 683.535 748.708, 688.189 744.969 L 692 741.906 692 745.453 L 692 749 698.500 749 L 705 749 705 716.500 L 705 684 698.500 684 L 692 684 691.978 705.250 C 691.959 723.974, 691.730 726.998, 690.053 730.691 C 684.916 742.006, 665.783 741.858, 662.353 730.478 C 661.596 727.966, 661.125 718.667, 661.077 705.250 L 661 684 654.750 683.999 L 648.500 683.997 649 709.749 M 297.655 694.399 C 287.811 698.062, 282.613 709.412, 285.004 722.022 C 287.075 732.940, 293.976 739, 304.338 739 C 311.339 739, 315.796 737.075, 320.276 732.116 C 328.785 722.697, 326.746 703.840, 316.445 696.705 C 311.466 693.255, 303.392 692.264, 297.655 694.399 M 503.655 694.459 C 494.891 697.583, 490.590 704.839, 490.590 716.500 C 490.590 731.297, 497.378 739.033, 510.315 738.978 C 522.852 738.925, 530.976 730.068, 530.994 716.432 C 531.017 699.998, 517.834 689.403, 503.655 694.459 M 738.761 695.062 C 734.747 697.182, 733.003 699.342, 730.538 705.250 L 728.973 709 747.917 709 L 766.860 709 765.933 705.750 C 764.721 701.507, 762.101 698.034, 758.010 695.250 C 753.644 692.278, 744.208 692.186, 738.761 695.062" stroke="none" fill="#f4f3f2" fill-rule="evenodd"/></svg>